<svg width="123" height="38" viewBox="0 0 123 38" fill="none" xmlns="http://www.w3.org/2000/svg">
<path d="M2.5625 0H0V38H2.5625V0Z" fill="#252525"/>
<path d="M12.8125 0H10.25V38H12.8125V0Z" fill="#252525"/>
<path d="M23.0625 0H15.375V38H23.0625V0Z" fill="#252525"/>
<path d="M33.3125 0H25.625V38H33.3125V0Z" fill="#252525"/>
<path d="M38.4375 0H35.875V38H38.4375V0Z" fill="#252525"/>
<path d="M48.6875 0H41V38H48.6875V0Z" fill="#252525"/>
<path d="M53.8125 0H51.25V38H53.8125V0Z" fill="#252525"/>
<path d="M64.0625 0H61.5V38H64.0625V0Z" fill="#252525"/>
<path d="M69.1875 0H66.625V38H69.1875V0Z" fill="#252525"/>
<path d="M79.4375 0H71.75V38H79.4375V0Z" fill="#252525"/>
<path d="M84.5625 0H82V38H84.5625V0Z" fill="#252525"/>
<path d="M94.8125 0H92.25V38H94.8125V0Z" fill="#252525"/>
<path d="M105.062 0H97.375V38H105.062V0Z" fill="#252525"/>
<path d="M115.312 0H107.625V38H115.312V0Z" fill="#252525"/>
<path d="M120.437 0H117.875V38H120.437V0Z" fill="#252525"/>
</svg>
